<svg xmlns="http://www.w3.org/2000/svg" xmlns:xlink="http://www.w3.org/1999/xlink" width="500" zoomAndPan="magnify" viewBox="0 0 375 374.999991" height="500" preserveAspectRatio="xMidYMid meet" version="1.0"><defs><g/><clipPath id="b6181beb8a"><path d="M 75.628906 201.535156 L 82.238281 201.535156 L 82.238281 208.144531 L 75.628906 208.144531 Z M 75.628906 201.535156 " clip-rule="nonzero"/></clipPath><clipPath id="896a26a305"><path d="M 78.933594 201.535156 C 77.109375 201.535156 75.628906 203.011719 75.628906 204.839844 C 75.628906 206.664062 77.109375 208.144531 78.933594 208.144531 C 80.761719 208.144531 82.238281 206.664062 82.238281 204.839844 C 82.238281 203.011719 80.761719 201.535156 78.933594 201.535156 Z M 78.933594 201.535156 " clip-rule="nonzero"/></clipPath><clipPath id="716f085bbd"><path d="M 75.628906 201.535156 L 82.234375 201.535156 L 82.234375 208.140625 L 75.628906 208.140625 Z M 75.628906 201.535156 " clip-rule="nonzero"/></clipPath><clipPath id="313c6abc37"><path d="M 78.933594 201.535156 C 77.109375 201.535156 75.628906 203.011719 75.628906 204.835938 C 75.628906 206.660156 77.109375 208.140625 78.933594 208.140625 C 80.757812 208.140625 82.234375 206.660156 82.234375 204.835938 C 82.234375 203.011719 80.757812 201.535156 78.933594 201.535156 Z M 78.933594 201.535156 " clip-rule="nonzero"/></clipPath><clipPath id="2ef32f2c14"><path d="M 105.808594 201.535156 L 112.417969 201.535156 L 112.417969 208.144531 L 105.808594 208.144531 Z M 105.808594 201.535156 " clip-rule="nonzero"/></clipPath><clipPath id="dcb9a83dde"><path d="M 109.113281 201.535156 C 107.289062 201.535156 105.808594 203.011719 105.808594 204.839844 C 105.808594 206.664062 107.289062 208.144531 109.113281 208.144531 C 110.9375 208.144531 112.417969 206.664062 112.417969 204.839844 C 112.417969 203.011719 110.9375 201.535156 109.113281 201.535156 Z M 109.113281 201.535156 " clip-rule="nonzero"/></clipPath><clipPath id="fe58aa572b"><path d="M 105.808594 201.535156 L 112.414062 201.535156 L 112.414062 208.140625 L 105.808594 208.140625 Z M 105.808594 201.535156 " clip-rule="nonzero"/></clipPath><clipPath id="b44afd0fd1"><path d="M 109.109375 201.535156 C 107.285156 201.535156 105.808594 203.011719 105.808594 204.835938 C 105.808594 206.660156 107.285156 208.140625 109.109375 208.140625 C 110.933594 208.140625 112.414062 206.660156 112.414062 204.835938 C 112.414062 203.011719 110.933594 201.535156 109.109375 201.535156 Z M 109.109375 201.535156 " clip-rule="nonzero"/></clipPath><clipPath id="84260b96bc"><path d="M 202.890625 175.5625 L 344.699219 175.5625 L 344.699219 186.570312 L 202.890625 186.570312 Z M 202.890625 175.5625 " clip-rule="nonzero"/></clipPath><clipPath id="2c4f75bb7c"><path d="M 336.433594 176.15625 L 344.699219 176.15625 L 344.699219 226.90625 L 336.433594 226.90625 Z M 336.433594 176.15625 " clip-rule="nonzero"/></clipPath><clipPath id="47eb0aee25"><path d="M 202.886719 163.589844 L 209.246094 163.589844 L 209.246094 184.5 L 202.886719 184.5 Z M 202.886719 163.589844 " clip-rule="nonzero"/></clipPath><clipPath id="ba21516287"><path d="M 217.351562 163.589844 L 223.710938 163.589844 L 223.710938 184.5 L 217.351562 184.5 Z M 217.351562 163.589844 " clip-rule="nonzero"/></clipPath><clipPath id="02e75d62a6"><path d="M 207 94 L 251 94 L 251 169 L 207 169 Z M 207 94 " clip-rule="nonzero"/></clipPath><clipPath id="ddaeeb17ad"><path d="M 261.804688 103.449219 L 227.035156 177.273438 L 196.957031 163.109375 L 231.726562 89.285156 Z M 261.804688 103.449219 " clip-rule="nonzero"/></clipPath><clipPath id="1544730fdb"><path d="M 261.804688 103.449219 L 227.035156 177.273438 L 196.957031 163.109375 L 231.726562 89.285156 Z M 261.804688 103.449219 " clip-rule="nonzero"/></clipPath><clipPath id="c58533bc7b"><path d="M 210 103 L 251 103 L 251 169 L 210 169 Z M 210 103 " clip-rule="nonzero"/></clipPath><clipPath id="991c025ecf"><path d="M 261.804688 103.449219 L 227.035156 177.273438 L 196.957031 163.109375 L 231.726562 89.285156 Z M 261.804688 103.449219 " clip-rule="nonzero"/></clipPath><clipPath id="cd7c7d6074"><path d="M 261.804688 103.449219 L 227.035156 177.273438 L 196.957031 163.109375 L 231.726562 89.285156 Z M 261.804688 103.449219 " clip-rule="nonzero"/></clipPath><clipPath id="eda18e0d49"><path d="M 202.890625 163.585938 L 223.796875 163.585938 L 223.796875 169.945312 L 202.890625 169.945312 Z M 202.890625 163.585938 " clip-rule="nonzero"/></clipPath><clipPath id="86ddcd6a74"><path d="M 205 94 L 320 94 L 320 141 L 205 141 Z M 205 94 " clip-rule="nonzero"/></clipPath><clipPath id="09a91ad86d"><path d="M 199.652344 99.785156 L 316.089844 79.585938 L 324.304688 126.933594 L 207.867188 147.132812 Z M 199.652344 99.785156 " clip-rule="nonzero"/></clipPath><clipPath id="4474c0287b"><path d="M 199.652344 99.785156 L 316.089844 79.585938 L 324.304688 126.933594 L 207.867188 147.132812 Z M 199.652344 99.785156 " clip-rule="nonzero"/></clipPath><clipPath id="499abb4c46"><path d="M 216 94 L 320 94 L 320 130 L 216 130 Z M 216 94 " clip-rule="nonzero"/></clipPath><clipPath id="bdda6af59b"><path d="M 199.652344 99.785156 L 316.089844 79.585938 L 324.304688 126.933594 L 207.867188 147.132812 Z M 199.652344 99.785156 " clip-rule="nonzero"/></clipPath><clipPath id="6cfaa74410"><path d="M 199.652344 99.785156 L 316.089844 79.585938 L 324.304688 126.933594 L 207.867188 147.132812 Z M 199.652344 99.785156 " clip-rule="nonzero"/></clipPath><clipPath id="47bb9473e8"><path d="M 273.796875 219.472656 L 306.859375 219.472656 L 306.859375 226.910156 L 273.796875 226.910156 Z M 273.796875 219.472656 " clip-rule="nonzero"/></clipPath></defs><g fill="#5271ff" fill-opacity="1"><g transform="translate(30.307163, 215.410235)"><g><path d="M 15.515625 0.453125 C 13.617188 0.453125 11.726562 0.390625 9.84375 0.265625 C 7.96875 0.148438 6.015625 -0.117188 3.984375 -0.546875 L 3.984375 -34.0625 C 5.585938 -34.363281 7.332031 -34.585938 9.21875 -34.734375 C 11.113281 -34.890625 12.878906 -34.96875 14.515625 -34.96875 C 16.710938 -34.96875 18.734375 -34.804688 20.578125 -34.484375 C 22.421875 -34.171875 24.003906 -33.628906 25.328125 -32.859375 C 26.660156 -32.097656 27.703125 -31.09375 28.453125 -29.84375 C 29.203125 -28.601562 29.578125 -27.066406 29.578125 -25.234375 C 29.578125 -22.472656 28.242188 -20.296875 25.578125 -18.703125 C 27.773438 -17.867188 29.269531 -16.738281 30.0625 -15.3125 C 30.863281 -13.882812 31.265625 -12.269531 31.265625 -10.46875 C 31.265625 -6.84375 29.941406 -4.113281 27.296875 -2.28125 C 24.660156 -0.457031 20.734375 0.453125 15.515625 0.453125 Z M 11.578125 -15.0625 L 11.578125 -6.140625 C 12.140625 -6.066406 12.75 -6.015625 13.40625 -5.984375 C 14.070312 -5.953125 14.804688 -5.9375 15.609375 -5.9375 C 17.941406 -5.9375 19.820312 -6.269531 21.25 -6.9375 C 22.675781 -7.601562 23.390625 -8.832031 23.390625 -10.625 C 23.390625 -12.21875 22.789062 -13.351562 21.59375 -14.03125 C 20.394531 -14.71875 18.679688 -15.0625 16.453125 -15.0625 Z M 11.578125 -21 L 15.359375 -21 C 17.753906 -21 19.46875 -21.304688 20.5 -21.921875 C 21.53125 -22.535156 22.046875 -23.523438 22.046875 -24.890625 C 22.046875 -26.285156 21.515625 -27.265625 20.453125 -27.828125 C 19.390625 -28.390625 17.828125 -28.671875 15.765625 -28.671875 C 15.097656 -28.671875 14.378906 -28.660156 13.609375 -28.640625 C 12.847656 -28.628906 12.171875 -28.59375 11.578125 -28.53125 Z M 11.578125 -21 "/></g></g></g><g fill="#5271ff" fill-opacity="1"><g transform="translate(63.819359, 215.410235)"><g><path d="M 28.03125 -13.171875 C 28.03125 -11.109375 27.726562 -9.21875 27.125 -7.5 C 26.53125 -5.789062 25.664062 -4.328125 24.53125 -3.109375 C 23.40625 -1.898438 22.050781 -0.960938 20.46875 -0.296875 C 18.894531 0.367188 17.125 0.703125 15.15625 0.703125 C 13.226562 0.703125 11.472656 0.367188 9.890625 -0.296875 C 8.316406 -0.960938 6.960938 -1.898438 5.828125 -3.109375 C 4.703125 -4.328125 3.820312 -5.789062 3.1875 -7.5 C 2.5625 -9.21875 2.25 -11.109375 2.25 -13.171875 C 2.25 -15.234375 2.570312 -17.109375 3.21875 -18.796875 C 3.863281 -20.492188 4.757812 -21.941406 5.90625 -23.140625 C 7.050781 -24.335938 8.414062 -25.269531 10 -25.9375 C 11.582031 -26.601562 13.300781 -26.9375 15.15625 -26.9375 C 17.050781 -26.9375 18.789062 -26.601562 20.375 -25.9375 C 21.957031 -25.269531 23.3125 -24.335938 24.4375 -23.140625 C 25.570312 -21.941406 26.453125 -20.492188 27.078125 -18.796875 C 27.710938 -17.109375 28.03125 -15.234375 28.03125 -13.171875 Z M 20.453125 -13.171875 C 20.453125 -15.460938 19.992188 -17.265625 19.078125 -18.578125 C 18.160156 -19.890625 16.851562 -20.546875 15.15625 -20.546875 C 13.46875 -20.546875 12.15625 -19.890625 11.21875 -18.578125 C 10.289062 -17.265625 9.828125 -15.460938 9.828125 -13.171875 C 9.828125 -10.867188 10.289062 -9.046875 11.21875 -7.703125 C 12.15625 -6.359375 13.46875 -5.6875 15.15625 -5.6875 C 16.851562 -5.6875 18.160156 -6.359375 19.078125 -7.703125 C 19.992188 -9.046875 20.453125 -10.867188 20.453125 -13.171875 Z M 20.453125 -13.171875 "/></g></g></g><g fill="#5271ff" fill-opacity="1"><g transform="translate(94.090045, 215.410235)"><g><path d="M 28.03125 -13.171875 C 28.03125 -11.109375 27.726562 -9.21875 27.125 -7.5 C 26.53125 -5.789062 25.664062 -4.328125 24.53125 -3.109375 C 23.40625 -1.898438 22.050781 -0.960938 20.46875 -0.296875 C 18.894531 0.367188 17.125 0.703125 15.15625 0.703125 C 13.226562 0.703125 11.472656 0.367188 9.890625 -0.296875 C 8.316406 -0.960938 6.960938 -1.898438 5.828125 -3.109375 C 4.703125 -4.328125 3.820312 -5.789062 3.1875 -7.5 C 2.5625 -9.21875 2.25 -11.109375 2.25 -13.171875 C 2.25 -15.234375 2.570312 -17.109375 3.21875 -18.796875 C 3.863281 -20.492188 4.757812 -21.941406 5.90625 -23.140625 C 7.050781 -24.335938 8.414062 -25.269531 10 -25.9375 C 11.582031 -26.601562 13.300781 -26.9375 15.15625 -26.9375 C 17.050781 -26.9375 18.789062 -26.601562 20.375 -25.9375 C 21.957031 -25.269531 23.3125 -24.335938 24.4375 -23.140625 C 25.570312 -21.941406 26.453125 -20.492188 27.078125 -18.796875 C 27.710938 -17.109375 28.03125 -15.234375 28.03125 -13.171875 Z M 20.453125 -13.171875 C 20.453125 -15.460938 19.992188 -17.265625 19.078125 -18.578125 C 18.160156 -19.890625 16.851562 -20.546875 15.15625 -20.546875 C 13.46875 -20.546875 12.15625 -19.890625 11.21875 -18.578125 C 10.289062 -17.265625 9.828125 -15.460938 9.828125 -13.171875 C 9.828125 -10.867188 10.289062 -9.046875 11.21875 -7.703125 C 12.15625 -6.359375 13.46875 -5.6875 15.15625 -5.6875 C 16.851562 -5.6875 18.160156 -6.359375 19.078125 -7.703125 C 19.992188 -9.046875 20.453125 -10.867188 20.453125 -13.171875 Z M 20.453125 -13.171875 "/></g></g></g><g fill="#5271ff" fill-opacity="1"><g transform="translate(124.360727, 215.410235)"><g><path d="M 11.015625 -5.34375 C 12.378906 -5.34375 13.34375 -5.472656 13.90625 -5.734375 C 14.476562 -6.003906 14.765625 -6.519531 14.765625 -7.28125 C 14.765625 -7.875 14.394531 -8.394531 13.65625 -8.84375 C 12.925781 -9.300781 11.816406 -9.8125 10.328125 -10.375 C 9.160156 -10.800781 8.101562 -11.25 7.15625 -11.71875 C 6.207031 -12.1875 5.398438 -12.742188 4.734375 -13.390625 C 4.066406 -14.035156 3.550781 -14.804688 3.1875 -15.703125 C 2.820312 -16.609375 2.640625 -17.691406 2.640625 -18.953125 C 2.640625 -21.410156 3.550781 -23.351562 5.375 -24.78125 C 7.207031 -26.21875 9.722656 -26.9375 12.921875 -26.9375 C 14.515625 -26.9375 16.039062 -26.789062 17.5 -26.5 C 18.96875 -26.21875 20.132812 -25.910156 21 -25.578125 L 19.703125 -19.796875 C 18.835938 -20.097656 17.894531 -20.363281 16.875 -20.59375 C 15.863281 -20.832031 14.726562 -20.953125 13.46875 -20.953125 C 11.132812 -20.953125 9.96875 -20.300781 9.96875 -19 C 9.96875 -18.695312 10.019531 -18.429688 10.125 -18.203125 C 10.226562 -17.972656 10.425781 -17.75 10.71875 -17.53125 C 11.019531 -17.3125 11.425781 -17.078125 11.9375 -16.828125 C 12.457031 -16.578125 13.117188 -16.304688 13.921875 -16.015625 C 15.546875 -15.410156 16.890625 -14.816406 17.953125 -14.234375 C 19.015625 -13.648438 19.851562 -13.019531 20.46875 -12.34375 C 21.082031 -11.664062 21.515625 -10.910156 21.765625 -10.078125 C 22.015625 -9.242188 22.140625 -8.28125 22.140625 -7.1875 C 22.140625 -4.59375 21.164062 -2.628906 19.21875 -1.296875 C 17.28125 0.0351562 14.53125 0.703125 10.96875 0.703125 C 8.644531 0.703125 6.707031 0.5 5.15625 0.09375 C 3.613281 -0.300781 2.539062 -0.628906 1.9375 -0.890625 L 3.1875 -6.9375 C 4.457031 -6.4375 5.753906 -6.046875 7.078125 -5.765625 C 8.410156 -5.484375 9.722656 -5.34375 11.015625 -5.34375 Z M 11.015625 -5.34375 "/></g></g></g><g fill="#5271ff" fill-opacity="1"><g transform="translate(148.547358, 215.410235)"><g><path d="M 3.234375 -32.765625 L 10.671875 -33.96875 L 10.671875 -26.234375 L 19.59375 -26.234375 L 19.59375 -20.046875 L 10.671875 -20.046875 L 10.671875 -10.828125 C 10.671875 -9.265625 10.941406 -8.015625 11.484375 -7.078125 C 12.035156 -6.148438 13.144531 -5.6875 14.8125 -5.6875 C 15.613281 -5.6875 16.4375 -5.757812 17.28125 -5.90625 C 18.125 -6.0625 18.894531 -6.269531 19.59375 -6.53125 L 20.640625 -0.75 C 19.742188 -0.382812 18.75 -0.0703125 17.65625 0.1875 C 16.5625 0.457031 15.210938 0.59375 13.609375 0.59375 C 11.585938 0.59375 9.910156 0.320312 8.578125 -0.21875 C 7.242188 -0.769531 6.175781 -1.535156 5.375 -2.515625 C 4.582031 -3.492188 4.023438 -4.679688 3.703125 -6.078125 C 3.390625 -7.472656 3.234375 -9.019531 3.234375 -10.71875 Z M 3.234375 -32.765625 "/></g></g></g><g fill="#ffffff" fill-opacity="1"><g transform="translate(170.691339, 215.410235)"><g><path d="M 3.984375 0 L 3.984375 -34.5625 L 27.328125 -34.5625 L 27.328125 -28.03125 L 11.765625 -28.03125 L 11.765625 -21.25 L 25.578125 -21.25 L 25.578125 -14.859375 L 11.765625 -14.859375 L 11.765625 -6.53125 L 28.484375 -6.53125 L 28.484375 0 Z M 3.984375 0 "/></g></g></g><g fill="#ffffff" fill-opacity="1"><g transform="translate(200.912156, 215.410235)"><g><path d="M 3.484375 -25.34375 C 4.753906 -25.707031 6.382812 -26.046875 8.375 -26.359375 C 10.375 -26.671875 12.46875 -26.828125 14.65625 -26.828125 C 16.882812 -26.828125 18.738281 -26.535156 20.21875 -25.953125 C 21.695312 -25.378906 22.867188 -24.554688 23.734375 -23.484375 C 24.597656 -22.421875 25.210938 -21.15625 25.578125 -19.6875 C 25.953125 -18.226562 26.140625 -16.601562 26.140625 -14.8125 L 26.140625 0 L 18.703125 0 L 18.703125 -13.921875 C 18.703125 -16.304688 18.382812 -18 17.75 -19 C 17.125 -20 15.945312 -20.5 14.21875 -20.5 C 13.6875 -20.5 13.117188 -20.472656 12.515625 -20.421875 C 11.921875 -20.367188 11.390625 -20.3125 10.921875 -20.25 L 10.921875 0 L 3.484375 0 Z M 3.484375 -25.34375 "/></g></g></g><g fill="#ffffff" fill-opacity="1"><g transform="translate(230.285197, 215.410235)"><g><path d="M 9.828125 -13.96875 C 9.828125 -9.8125 11.503906 -7.734375 14.859375 -7.734375 C 15.628906 -7.734375 16.34375 -7.832031 17 -8.03125 C 17.664062 -8.226562 18.234375 -8.460938 18.703125 -8.734375 L 18.703125 -20.59375 C 18.335938 -20.664062 17.90625 -20.722656 17.40625 -20.765625 C 16.90625 -20.816406 16.320312 -20.84375 15.65625 -20.84375 C 13.695312 -20.84375 12.234375 -20.191406 11.265625 -18.890625 C 10.304688 -17.597656 9.828125 -15.957031 9.828125 -13.96875 Z M 26.140625 -3.296875 C 26.140625 0.992188 25.046875 4.175781 22.859375 6.25 C 20.679688 8.332031 17.316406 9.375 12.765625 9.375 C 11.171875 9.375 9.578125 9.234375 7.984375 8.953125 C 6.390625 8.671875 4.910156 8.296875 3.546875 7.828125 L 4.84375 1.59375 C 6 2.0625 7.21875 2.425781 8.5 2.6875 C 9.78125 2.957031 11.238281 3.09375 12.875 3.09375 C 15 3.09375 16.5 2.625 17.375 1.6875 C 18.257812 0.757812 18.703125 -0.429688 18.703125 -1.890625 L 18.703125 -2.84375 C 17.898438 -2.476562 17.078125 -2.203125 16.234375 -2.015625 C 15.390625 -1.835938 14.46875 -1.75 13.46875 -1.75 C 9.84375 -1.75 7.066406 -2.816406 5.140625 -4.953125 C 3.210938 -7.097656 2.25 -10.101562 2.25 -13.96875 C 2.25 -15.894531 2.546875 -17.644531 3.140625 -19.21875 C 3.742188 -20.800781 4.617188 -22.15625 5.765625 -23.28125 C 6.910156 -24.414062 8.3125 -25.289062 9.96875 -25.90625 C 11.632812 -26.519531 13.515625 -26.828125 15.609375 -26.828125 C 16.503906 -26.828125 17.425781 -26.785156 18.375 -26.703125 C 19.320312 -26.617188 20.257812 -26.507812 21.1875 -26.375 C 22.125 -26.25 23.015625 -26.09375 23.859375 -25.90625 C 24.710938 -25.726562 25.472656 -25.539062 26.140625 -25.34375 Z M 26.140625 -3.296875 "/></g></g></g><g fill="#ffffff" fill-opacity="1"><g transform="translate(259.907588, 215.410235)"><g><path d="M 10.921875 0 L 3.484375 0 L 3.484375 -26.234375 L 10.921875 -26.234375 Z M 11.625 -33.8125 C 11.625 -32.445312 11.179688 -31.375 10.296875 -30.59375 C 9.421875 -29.8125 8.382812 -29.421875 7.1875 -29.421875 C 5.988281 -29.421875 4.945312 -29.8125 4.0625 -30.59375 C 3.1875 -31.375 2.75 -32.445312 2.75 -33.8125 C 2.75 -35.175781 3.1875 -36.25 4.0625 -37.03125 C 4.945312 -37.8125 5.988281 -38.203125 7.1875 -38.203125 C 8.382812 -38.203125 9.421875 -37.8125 10.296875 -37.03125 C 11.179688 -36.25 11.625 -35.175781 11.625 -33.8125 Z M 11.625 -33.8125 "/></g></g></g><g fill="#ffffff" fill-opacity="1"><g transform="translate(274.319828, 215.410235)"><g><path d="M 3.484375 -25.34375 C 4.753906 -25.707031 6.382812 -26.046875 8.375 -26.359375 C 10.375 -26.671875 12.46875 -26.828125 14.65625 -26.828125 C 16.882812 -26.828125 18.738281 -26.535156 20.21875 -25.953125 C 21.695312 -25.378906 22.867188 -24.554688 23.734375 -23.484375 C 24.597656 -22.421875 25.210938 -21.15625 25.578125 -19.6875 C 25.953125 -18.226562 26.140625 -16.601562 26.140625 -14.8125 L 26.140625 0 L 18.703125 0 L 18.703125 -13.921875 C 18.703125 -16.304688 18.382812 -18 17.75 -19 C 17.125 -20 15.945312 -20.5 14.21875 -20.5 C 13.6875 -20.5 13.117188 -20.472656 12.515625 -20.421875 C 11.921875 -20.367188 11.390625 -20.3125 10.921875 -20.25 L 10.921875 0 L 3.484375 0 Z M 3.484375 -25.34375 "/></g></g></g><g fill="#ffffff" fill-opacity="1"><g transform="translate(303.692864, 215.410235)"><g><path d="M 2.25 -12.921875 C 2.25 -15.242188 2.601562 -17.273438 3.3125 -19.015625 C 4.03125 -20.765625 4.96875 -22.222656 6.125 -23.390625 C 7.289062 -24.554688 8.628906 -25.4375 10.140625 -26.03125 C 11.660156 -26.632812 13.21875 -26.9375 14.8125 -26.9375 C 18.539062 -26.9375 21.484375 -25.796875 23.640625 -23.515625 C 25.796875 -21.234375 26.875 -17.882812 26.875 -13.46875 C 26.875 -13.03125 26.859375 -12.550781 26.828125 -12.03125 C 26.796875 -11.519531 26.765625 -11.066406 26.734375 -10.671875 L 9.875 -10.671875 C 10.039062 -9.140625 10.753906 -7.925781 12.015625 -7.03125 C 13.285156 -6.132812 14.984375 -5.6875 17.109375 -5.6875 C 18.472656 -5.6875 19.8125 -5.8125 21.125 -6.0625 C 22.4375 -6.3125 23.507812 -6.617188 24.34375 -6.984375 L 25.34375 -0.953125 C 24.9375 -0.742188 24.398438 -0.539062 23.734375 -0.34375 C 23.078125 -0.144531 22.335938 0.0234375 21.515625 0.171875 C 20.703125 0.328125 19.828125 0.453125 18.890625 0.546875 C 17.960938 0.648438 17.035156 0.703125 16.109375 0.703125 C 13.742188 0.703125 11.6875 0.351562 9.9375 -0.34375 C 8.195312 -1.039062 6.753906 -1.992188 5.609375 -3.203125 C 4.460938 -4.421875 3.613281 -5.863281 3.0625 -7.53125 C 2.519531 -9.195312 2.25 -10.992188 2.25 -12.921875 Z M 19.703125 -15.765625 C 19.671875 -16.390625 19.5625 -17 19.375 -17.59375 C 19.195312 -18.195312 18.914062 -18.734375 18.53125 -19.203125 C 18.144531 -19.671875 17.660156 -20.050781 17.078125 -20.34375 C 16.492188 -20.644531 15.769531 -20.796875 14.90625 -20.796875 C 14.082031 -20.796875 13.367188 -20.65625 12.765625 -20.375 C 12.171875 -20.09375 11.671875 -19.71875 11.265625 -19.25 C 10.867188 -18.78125 10.5625 -18.238281 10.34375 -17.625 C 10.132812 -17.007812 9.976562 -16.390625 9.875 -15.765625 Z M 19.703125 -15.765625 "/></g></g></g><g clip-path="url(#b6181beb8a)"><g clip-path="url(#896a26a305)"><path fill="#000000" d="M 75.628906 201.535156 L 82.238281 201.535156 L 82.238281 208.144531 L 75.628906 208.144531 Z M 75.628906 201.535156 " fill-opacity="1" fill-rule="nonzero"/></g></g><g clip-path="url(#716f085bbd)"><g clip-path="url(#313c6abc37)"><path stroke-linecap="butt" transform="matrix(0.302239, 0, 0, 0.302239, 75.628586, 201.533454)" fill="none" stroke-linejoin="miter" d="M 10.935085 0.00563225 C 4.8994 0.00563225 0.00105981 4.891048 0.00105981 10.926733 C 0.00105981 16.962419 4.8994 21.860759 10.935085 21.860759 C 16.970771 21.860759 21.856186 16.962419 21.856186 10.926733 C 21.856186 4.891048 16.970771 0.00563225 10.935085 0.00563225 Z M 10.935085 0.00563225 " stroke="#ffffff" stroke-width="9.925923" stroke-opacity="1" stroke-miterlimit="4"/></g></g><g clip-path="url(#2ef32f2c14)"><g clip-path="url(#dcb9a83dde)"><path fill="#000000" d="M 105.808594 201.535156 L 112.417969 201.535156 L 112.417969 208.144531 L 105.808594 208.144531 Z M 105.808594 201.535156 " fill-opacity="1" fill-rule="nonzero"/></g></g><g clip-path="url(#fe58aa572b)"><g clip-path="url(#b44afd0fd1)"><path stroke-linecap="butt" transform="matrix(0.302239, 0, 0, 0.302239, 105.80766, 201.533454)" fill="none" stroke-linejoin="miter" d="M 10.924191 0.00563225 C 4.888505 0.00563225 0.0030896 4.891048 0.0030896 10.926733 C 0.0030896 16.962419 4.888505 21.860759 10.924191 21.860759 C 16.959876 21.860759 21.858216 16.962419 21.858216 10.926733 C 21.858216 4.891048 16.959876 0.00563225 10.924191 0.00563225 Z M 10.924191 0.00563225 " stroke="#ffffff" stroke-width="9.925923" stroke-opacity="1" stroke-miterlimit="4"/></g></g><g clip-path="url(#84260b96bc)"><path fill="#5271ff" d="M 202.890625 175.5625 L 344.679688 175.5625 L 344.679688 186.570312 L 202.890625 186.570312 Z M 202.890625 175.5625 " fill-opacity="1" fill-rule="nonzero"/></g><g clip-path="url(#2c4f75bb7c)"><path fill="#5271ff" d="M 344.699219 176.15625 L 344.699219 226.902344 L 336.433594 226.902344 L 336.433594 176.15625 Z M 344.699219 176.15625 " fill-opacity="1" fill-rule="nonzero"/></g><g clip-path="url(#47eb0aee25)"><path fill="#5271ff" d="M 209.246094 163.589844 L 209.246094 184.496094 L 202.886719 184.496094 L 202.886719 163.589844 Z M 209.246094 163.589844 " fill-opacity="1" fill-rule="nonzero"/></g><g clip-path="url(#ba21516287)"><path fill="#5271ff" d="M 223.710938 163.589844 L 223.710938 184.496094 L 217.351562 184.496094 L 217.351562 163.589844 Z M 223.710938 163.589844 " fill-opacity="1" fill-rule="nonzero"/></g><g clip-path="url(#02e75d62a6)"><g clip-path="url(#ddaeeb17ad)"><g clip-path="url(#1544730fdb)"><path fill="#d9d9d9" d="M 244.34375 102.910156 C 246.445312 102.660156 248.574219 103.871094 249.445312 105.816406 C 250.320312 107.765625 249.882812 110.3125 248.394531 111.925781 C 249.871094 112.617188 250.820312 114.320312 250.675781 116.03125 C 250.53125 117.746094 249.304688 119.351562 247.722656 119.910156 C 250.761719 121.71875 250.789062 126.8125 248.242188 129.53125 C 245.695312 132.253906 241.511719 132.699219 238.21875 131.40625 C 239.164062 132.53125 237.96875 134.621094 236.53125 135.023438 C 237.195312 136.414062 237.265625 138.378906 236.042969 139.386719 C 234.824219 140.394531 232.957031 140.394531 231.820312 139.390625 C 233.042969 143.511719 229.441406 148.546875 225.230469 148.597656 C 228.015625 151.675781 228.542969 156.914062 226.039062 160.480469 C 223.539062 164.050781 218.074219 165.101562 215.039062 162.289062 C 215.242188 164.554688 213.714844 168.449219 211.0625 168.484375 C 208.625 168.511719 206.976562 164.132812 209.15625 158.578125 C 209.183594 158.507812 206.59375 154.128906 208.488281 148.1875 C 210.183594 142.875 214.730469 139.226562 218.949219 138.425781 C 216.261719 136.835938 217.480469 133.019531 219.589844 132.089844 C 217.296875 128.246094 217.890625 122.703125 220.96875 119.230469 C 219.960938 116.359375 220.800781 112.808594 223.007812 110.613281 C 225.21875 108.417969 228.664062 107.703125 231.378906 108.882812 C 230.675781 107.476562 230.355469 105.753906 230.945312 104.238281 C 231.539062 102.71875 233.238281 101.578125 234.699219 102.054688 C 234.605469 99.90625 235.214844 97.625 236.667969 96.011719 C 238.121094 94.402344 240.554688 93.441406 242.386719 94.382812 C 246.726562 96.613281 244.34375 102.910156 244.34375 102.910156 Z M 244.34375 102.910156 " fill-opacity="1" fill-rule="nonzero"/></g></g></g><g clip-path="url(#c58533bc7b)"><g clip-path="url(#991c025ecf)"><g clip-path="url(#cd7c7d6074)"><path fill="#ffffff" d="M 210.976562 168.480469 C 210.082031 167.359375 209.953125 165.121094 210.398438 163.238281 C 210.945312 160.921875 212.222656 159.214844 212.222656 159.214844 C 212.222656 159.214844 211.363281 155.285156 213.125 149.671875 C 215.617188 141.734375 226.054688 139.492188 226.054688 139.492188 C 226.054688 139.492188 223.882812 138.0625 224.414062 136.074219 C 224.941406 134.085938 227.734375 133.773438 227.734375 133.773438 C 223.0625 127.707031 228.890625 123.539062 228.890625 123.539062 C 225.152344 115.066406 234.792969 111.875 234.792969 111.875 C 231.609375 106.105469 237.117188 105.644531 237.117188 105.644531 C 237.117188 105.644531 237.625 102.835938 239.859375 103.277344 C 242.089844 103.71875 241.53125 107.929688 241.53125 107.929688 C 247.761719 103.339844 248.394531 111.925781 248.394531 111.925781 C 248.496094 111.972656 248.597656 112.027344 248.699219 112.085938 C 250 112.859375 250.808594 114.441406 250.675781 116.03125 C 250.53125 117.746094 249.304688 119.351562 247.722656 119.910156 C 250.761719 121.71875 250.789062 126.8125 248.242188 129.53125 C 245.695312 132.253906 241.511719 132.699219 238.21875 131.40625 C 239.164062 132.53125 237.96875 134.621094 236.53125 135.023438 C 237.195312 136.414062 237.265625 138.378906 236.042969 139.386719 C 234.824219 140.394531 232.957031 140.394531 231.820312 139.390625 C 233.042969 143.511719 229.441406 148.546875 225.230469 148.597656 C 228.015625 151.675781 228.542969 156.914062 226.039062 160.480469 C 223.539062 164.050781 218.074219 165.101562 215.039062 162.289062 C 215.242188 164.554688 213.714844 168.449219 211.0625 168.484375 C 211.035156 168.484375 211.003906 168.480469 210.976562 168.480469 Z M 210.976562 168.480469 " fill-opacity="1" fill-rule="nonzero"/></g></g></g><g clip-path="url(#eda18e0d49)"><path fill="#5271ff" d="M 202.890625 163.585938 L 223.796875 163.585938 L 223.796875 169.945312 L 202.890625 169.945312 Z M 202.890625 163.585938 " fill-opacity="1" fill-rule="nonzero"/></g><g clip-path="url(#86ddcd6a74)"><g clip-path="url(#09a91ad86d)"><g clip-path="url(#4474c0287b)"><path fill="#d9d9d9" d="M 213.554688 120.957031 C 211.507812 118.671875 211.175781 115.136719 212.757812 112.480469 C 214.339844 109.820312 217.726562 108.222656 220.882812 108.644531 C 220.46875 106.3125 221.703125 103.769531 223.855469 102.515625 C 226.003906 101.257812 228.9375 101.375 230.914062 102.792969 C 230.53125 97.675781 236.550781 93.402344 241.902344 94.160156 C 247.25 94.917969 251.265625 99.507812 252.472656 104.492188 C 253.019531 102.433594 256.492188 102.113281 258.164062 103.484375 C 259.265625 101.535156 261.539062 99.820312 263.75 100.429688 C 265.960938 101.039062 267.519531 103.25 267.273438 105.433594 C 271.148438 100.550781 280.121094 100.636719 283.6875 105.589844 C 285.023438 99.71875 290.796875 94.734375 297.117188 94.730469 C 303.433594 94.726562 309.230469 100.335938 308.421875 106.28125 C 310.941406 104.15625 316.835938 102.722656 319.082031 105.839844 C 321.148438 108.710938 317.324219 114.308594 308.917969 116.351562 C 308.8125 116.378906 305.773438 123.097656 297.140625 125.796875 C 289.425781 128.214844 281.3125 125.851562 276.847656 121.511719 C 277.203125 126.027344 271.652344 127.757812 268.796875 126.03125 C 266.144531 131.953125 259.074219 135.863281 252.386719 135.101562 C 249.820312 138.691406 244.910156 140.648438 240.464844 139.855469 C 236.019531 139.066406 232.300781 135.570312 231.4375 131.367188 C 230.359375 133.371094 228.582031 135.1875 226.289062 135.75 C 223.992188 136.3125 221.226562 135.242188 220.574219 133.113281 C 218.101562 135.015625 214.886719 136.1875 211.761719 135.808594 C 208.640625 135.425781 205.476562 133.335938 205.070312 130.378906 C 204.101562 123.375 213.554688 120.957031 213.554688 120.957031 Z M 213.554688 120.957031 " fill-opacity="1" fill-rule="nonzero"/></g></g></g><g clip-path="url(#499abb4c46)"><g clip-path="url(#bdda6af59b)"><g clip-path="url(#6cfaa74410)"><path fill="#ffffff" d="M 319.152344 105.949219 C 318.566406 107.9375 316.015625 109.960938 313.410156 110.996094 C 310.203125 112.277344 307.117188 112.179688 307.117188 112.179688 C 307.117188 112.179688 303.171875 116.476562 295.046875 119.058594 C 283.546875 122.710938 272.195312 112.191406 272.195312 112.191406 C 272.195312 112.191406 272.308594 115.960938 269.507812 116.988281 C 266.707031 118.015625 264.011719 114.964844 264.011719 114.964844 C 260.703125 125.554688 250.902344 122.113281 250.902344 122.113281 C 243.960938 133.605469 232.148438 124.824219 232.148438 124.824219 C 227.949219 133.40625 222.824219 127.253906 222.824219 127.253906 C 222.824219 127.253906 219.0625 128.988281 217.726562 125.972656 C 216.390625 122.957031 221.855469 120.113281 221.855469 120.113281 C 211.21875 116.542969 220.882812 108.644531 220.882812 108.644531 C 220.851562 108.476562 220.832031 108.3125 220.820312 108.144531 C 220.648438 105.960938 221.855469 103.679688 223.855469 102.515625 C 226.003906 101.257812 228.933594 101.375 230.914062 102.792969 C 230.53125 97.675781 236.550781 93.402344 241.898438 94.160156 C 247.25 94.917969 251.261719 99.507812 252.472656 104.492188 C 253.019531 102.433594 256.492188 102.113281 258.164062 103.484375 C 259.265625 101.535156 261.539062 99.820312 263.75 100.429688 C 265.960938 101.039062 267.519531 103.25 267.273438 105.433594 C 271.148438 100.550781 280.121094 100.636719 283.6875 105.589844 C 285.023438 99.71875 290.796875 94.734375 297.113281 94.730469 C 303.433594 94.726562 309.230469 100.335938 308.417969 106.28125 C 310.941406 104.15625 316.835938 102.722656 319.082031 105.839844 C 319.105469 105.875 319.128906 105.910156 319.152344 105.949219 Z M 319.152344 105.949219 " fill-opacity="1" fill-rule="nonzero"/></g></g></g><g clip-path="url(#47bb9473e8)"><path fill="#5271ff" d="M 273.796875 219.472656 L 306.859375 219.472656 L 306.859375 226.910156 L 273.796875 226.910156 Z M 273.796875 219.472656 " fill-opacity="1" fill-rule="nonzero"/></g></svg>