<svg width="31" height="16" viewBox="0 0 31 16" fill="none" xmlns="http://www.w3.org/2000/svg">
<path d="M29.1943 13.1064C29.6186 13.1065 30.0264 13.2176 30.3334 13.4167C30.6404 13.6158 30.8231 13.8875 30.8434 14.1757C30.8638 14.4638 30.7204 14.7462 30.4429 14.9644C30.1654 15.1826 29.7752 15.3199 29.3529 15.3477L29.1943 15.353H11.5749C11.1507 15.3528 10.7428 15.2417 10.4358 15.0426C10.1288 14.8435 9.94621 14.5718 9.92582 14.2836C9.90544 13.9955 10.0488 13.7131 10.3263 13.4949C10.6038 13.2767 10.9941 13.1394 11.4163 13.1116L11.5749 13.1064H29.1943ZM29.1943 7.86434C29.6324 7.86434 30.0526 7.98269 30.3624 8.19335C30.6721 8.404 30.8462 8.68972 30.8462 8.98763C30.8462 9.28555 30.6721 9.57126 30.3624 9.78192C30.0526 9.99258 29.6324 10.1109 29.1943 10.1109H11.5749C11.1368 10.1109 10.7167 9.99258 10.4069 9.78192C10.0971 9.57126 9.9231 9.28555 9.9231 8.98763C9.9231 8.68972 10.0971 8.404 10.4069 8.19335C10.7167 7.98269 11.1368 7.86434 11.5749 7.86434H29.1943ZM29.1943 2.62231C29.6324 2.62231 30.0526 2.74066 30.3624 2.95132C30.6721 3.16198 30.8462 3.44769 30.8462 3.74561C30.8462 4.04352 30.6721 4.32923 30.3624 4.53989C30.0526 4.75055 29.6324 4.8689 29.1943 4.8689H11.5749C11.1368 4.8689 10.7167 4.75055 10.4069 4.53989C10.0971 4.32923 9.9231 4.04352 9.9231 3.74561C9.9231 3.44769 10.0971 3.16198 10.4069 2.95132C10.7167 2.74066 11.1368 2.62231 11.5749 2.62231H29.1943Z" fill="white"/>
</svg>
